<svg width="720" height="546" viewBox="0 0 720 546" fill="none" xmlns="http://www.w3.org/2000/svg">
<path d="M618.741 217.653C587.096 93.4003 477.75 3.70701 349.402 0.109491C281.548 -1.79241 210.147 20.6783 158.162 99.3113C65.2325 239.876 163.873 337.011 232.642 383.168C265.866 405.512 295.802 432.379 321.584 462.99C368.036 518.03 457.398 586.426 563.824 479.261C640.961 401.588 639.821 300.418 618.741 217.653Z" fill="#F2F2F2"/>
<path opacity="0.1" d="M476.206 335.277L541.323 270.454L476.206 205.631L496.059 185.874L581.029 270.454L496.059 355.034L476.206 335.277Z" fill="black"/>
<path opacity="0.1" d="M290.25 275.079H316.721V248.648H290.25V275.079ZM423.132 248.648H396.662V275.079H423.132V248.648ZM343.456 275.079H369.926V248.648H343.456V275.079Z" fill="black"/>
<path opacity="0.1" d="M254.382 334.616L189.199 269.793L254.316 204.971L234.463 185.213L149.559 269.793L234.529 354.373L254.382 334.616Z" fill="black"/>
<path d="M720 497.102C720 508.05 558.823 546 360 546C161.177 546 0 508.05 0 497.102C0 486.154 161.177 506.353 360 506.353C558.823 506.353 720 486.154 720 497.102Z" fill="#3F3D56"/>
<path opacity="0.1" d="M720 497.102C720 508.05 558.823 546 360 546C161.177 546 0 508.05 0 497.102C0 486.154 161.177 506.353 360 506.353C558.823 506.353 720 486.154 720 497.102Z" fill="black"/>
<path d="M360 516.926C558.823 516.926 720 508.05 720 497.102C720 486.154 558.823 477.279 360 477.279C161.177 477.279 0 486.154 0 497.102C0 508.05 161.177 516.926 360 516.926Z" fill="#3F3D56"/>
<path d="M418.696 401.724C418.696 444.025 445.273 478.254 478.116 478.254L418.696 401.724Z" fill="#3F3D56"/>
<path d="M478.116 478.254C478.116 435.478 507.774 400.865 544.426 400.865L478.116 478.254Z" fill="#6C63FF"/>
<path d="M440.225 405.559C440.225 445.74 457.172 478.254 478.116 478.254L440.225 405.559Z" fill="#005FCE"/>
<path d="M478.116 478.254C478.116 423.596 512.396 379.367 554.76 379.367L478.116 478.254Z" fill="#3F3D56"/>
<path d="M465.616 478.794C465.616 478.794 474.043 478.535 476.582 476.729C479.122 474.923 489.545 472.767 490.175 475.663C490.805 478.559 502.839 490.067 493.325 490.143C483.811 490.22 471.219 488.664 468.684 487.122C466.149 485.58 465.616 478.794 465.616 478.794Z" fill="#A8A8A8"/>
<path opacity="0.2" d="M493.495 489.135C483.981 489.212 471.389 487.656 468.854 486.114C466.924 484.94 466.154 480.727 465.897 478.783C465.719 478.791 465.616 478.794 465.616 478.794C465.616 478.794 466.149 485.58 468.684 487.122C471.219 488.664 483.811 490.22 493.325 490.143C496.071 490.121 497.02 489.146 496.968 487.701C496.586 488.574 495.539 489.119 493.495 489.135Z" fill="black"/>
<path d="M572.779 252.982C572.779 252.982 552.404 237.536 550.858 243.198C549.311 248.86 565.808 261.728 565.808 261.728L572.779 252.982Z" fill="#FFB9B9"/>
<path opacity="0.1" d="M572.779 252.982C572.779 252.982 552.404 237.536 550.858 243.198C549.311 248.86 565.808 261.728 565.808 261.728L572.779 252.982Z" fill="black"/>
<path d="M640.041 204.077C640.041 204.077 615.812 247.316 615.296 253.493C614.781 259.67 614.781 260.184 612.719 259.67C610.657 259.155 582.304 256.066 579.726 257.096C577.149 258.125 571.994 250.919 571.994 250.919C571.994 250.919 562.199 260.699 564.261 262.758C566.323 264.817 572.509 265.846 573.54 268.42C574.571 270.994 576.118 273.568 580.757 273.053C585.397 272.538 616.843 281.289 620.967 279.745C625.091 278.2 626.122 275.627 628.184 275.627C630.246 275.627 634.37 273.568 634.37 273.053C634.37 272.538 648.804 245.257 648.804 245.257C648.804 245.257 665.816 208.195 640.041 204.077Z" fill="#D0CDE1"/>
<path opacity="0.1" d="M640.041 204.077C640.041 204.077 615.812 247.316 615.296 253.493C614.781 259.67 614.781 260.184 612.719 259.67C610.657 259.155 582.304 256.066 579.726 257.096C577.149 258.125 571.994 250.919 571.994 250.919C571.994 250.919 562.199 260.699 564.261 262.758C566.323 264.817 572.509 265.846 573.54 268.42C574.571 270.994 576.118 273.568 580.757 273.053C585.397 272.538 616.843 281.289 620.967 279.745C625.091 278.2 626.122 275.627 628.184 275.627C630.246 275.627 634.37 273.568 634.37 273.053C634.37 272.538 648.804 245.257 648.804 245.257C648.804 245.257 665.816 208.195 640.041 204.077Z" fill="black"/>
<path d="M604.888 175.572C604.669 178.306 604.713 181.054 605.021 183.779C605.804 189.693 608.53 195.858 605.955 201.378C605.02 203.382 603.436 205.128 602.573 207.155C600.747 211.448 602.403 216.209 602.155 220.778C601.834 226.68 598.075 232.367 592.356 235.601C602.126 235.904 611.417 231.081 617.565 224.508C623.712 217.935 627.136 209.783 629.702 201.627C631.021 197.796 631.867 193.819 632.22 189.784C632.425 187.466 632.153 185.13 631.421 182.921C630.518 180.763 629.329 178.735 627.885 176.893C626.346 174.732 624.765 172.528 622.493 170.92C619.696 168.94 614.302 166.951 610.591 167.239C606.04 167.593 605.08 172.418 604.888 175.572Z" fill="#2F2E41"/>
<path d="M619.936 191.724C619.936 191.724 625.606 211.798 620.967 217.461C616.327 223.123 648.804 214.887 648.804 214.887C648.804 214.887 632.824 198.93 640.556 188.635L619.936 191.724Z" fill="#FFB9B9"/>
<path opacity="0.1" d="M619.936 191.724C619.936 191.724 625.606 211.798 620.967 217.461C616.327 223.123 648.804 214.887 648.804 214.887C648.804 214.887 632.824 198.93 640.556 188.635L619.936 191.724Z" fill="black"/>
<path d="M476.206 322.722L541.323 257.899L476.206 193.077L496.059 173.319L581.029 257.899L496.059 342.479L476.206 322.722Z" fill="#005FCE"/>
<path d="M601.377 459.39V474.317L609.11 483.582L615.812 480.494L613.75 458.875L601.377 459.39Z" fill="#FFB9B9"/>
<path d="M604.471 473.287C604.471 473.287 602.409 466.081 598.8 471.228C595.192 476.376 591.583 487.7 589.521 488.215C587.459 488.73 573.025 504.687 587.459 504.687C601.893 504.687 606.533 497.995 606.533 497.995C606.533 497.995 620.967 492.333 620.967 491.303C620.967 490.274 618.905 471.228 617.874 471.228C616.843 471.228 616.327 474.832 613.75 474.832C611.172 474.832 604.471 473.287 604.471 473.287Z" fill="#2F2E41"/>
<path d="M635.917 461.963L635.401 475.862L647.773 481.008V460.934L635.917 461.963Z" fill="#FFB9B9"/>
<path d="M649.32 475.861C649.32 475.861 642.618 468.655 639.01 470.199C637.224 470.916 635.501 471.777 633.855 472.773C633.855 472.773 631.793 479.464 630.762 485.127C629.731 490.789 629.215 493.362 628.184 495.421C627.153 497.48 626.122 505.202 636.432 506.231C646.742 507.26 649.835 501.598 649.835 501.598L652.413 488.215C652.413 488.215 651.382 475.861 649.32 475.861Z" fill="#2F2E41"/>
<path d="M608.079 313.717C608.079 313.717 593.129 347.176 595.191 377.545C595.191 377.545 590.036 389.385 593.129 407.915C596.222 426.446 600.347 463.507 600.347 463.507C600.347 463.507 614.265 465.052 615.296 462.478C615.296 462.478 616.327 436.741 617.358 435.711C618.389 434.682 616.843 411.004 615.296 406.371C613.75 401.738 629.73 355.926 629.73 355.926L625.606 298.79L608.079 313.717Z" fill="#2F2E41"/>
<path opacity="0.1" d="M608.079 313.717C608.079 313.717 593.129 347.176 595.191 377.545C595.191 377.545 590.036 389.385 593.129 407.915C596.222 426.446 600.347 463.507 600.347 463.507C600.347 463.507 614.265 465.052 615.296 462.478C615.296 462.478 616.327 436.741 617.358 435.711C618.389 434.682 616.843 411.004 615.296 406.371C613.75 401.738 629.73 355.926 629.73 355.926L625.606 298.79L608.079 313.717Z" fill="black"/>
<path d="M603.955 311.658L613.75 332.763C613.75 332.763 618.389 380.634 620.967 386.811C620.967 386.811 621.998 404.312 626.637 409.974C631.277 415.636 634.886 465.566 634.886 465.566C634.886 465.566 647.773 469.17 648.804 465.566C649.835 461.963 652.928 437.256 652.928 437.256C652.928 437.256 653.959 416.151 648.289 402.253C642.618 388.355 654.99 338.425 654.99 338.425C654.99 338.425 667.878 314.232 649.32 294.672L603.955 311.658Z" fill="#2F2E41"/>
<path d="M631.277 197.9C642.95 197.9 652.413 188.452 652.413 176.796C652.413 165.14 642.95 155.692 631.277 155.692C619.604 155.692 610.141 165.14 610.141 176.796C610.141 188.452 619.604 197.9 631.277 197.9Z" fill="#FFB9B9"/>
<path d="M650.866 208.71C650.866 208.71 628.7 208.71 625.606 211.284C624.842 212.01 623.827 212.416 622.771 212.416C621.716 212.416 620.701 212.01 619.936 211.284C619.936 211.284 612.203 211.798 610.141 217.975C608.079 224.152 601.893 232.388 601.893 232.388C601.893 232.388 592.614 239.08 597.769 256.581C602.924 274.082 598.8 302.393 598.8 302.393C598.8 302.393 594.676 308.57 598.8 311.144C602.924 313.717 604.471 314.747 603.955 316.806C603.44 318.865 650.866 299.819 650.866 296.216C650.866 292.613 649.835 289.524 650.866 287.98C651.897 286.436 652.928 283.862 651.897 281.289C650.866 278.715 652.928 278.2 652.413 275.626C651.897 273.053 654.991 254.007 657.053 245.771C659.115 237.536 658.599 209.225 650.866 208.71Z" fill="#D0CDE1"/>
<path d="M572.779 259.159C572.779 259.159 552.404 243.713 550.858 249.375C549.311 255.037 565.808 267.905 565.808 267.905L572.779 259.159Z" fill="#FFB9B9"/>
<path d="M640.041 211.284C640.041 211.284 615.812 254.522 615.296 260.699C614.781 266.876 614.781 267.391 612.719 266.876C610.657 266.361 582.304 263.273 579.726 264.302C577.149 265.332 571.994 258.125 571.994 258.125C571.994 258.125 562.199 267.905 564.261 269.964C566.323 272.023 572.509 273.053 573.54 275.627C574.571 278.2 576.118 280.774 580.757 280.259C585.397 279.744 616.843 288.495 620.967 286.951C625.091 285.407 626.122 282.833 628.184 282.833C630.246 282.833 634.37 280.774 634.37 280.259C634.37 279.744 648.804 252.463 648.804 252.463C648.804 252.463 665.816 215.402 640.041 211.284Z" fill="#D0CDE1"/>
<path d="M620.811 190.279C620.518 188.189 619.446 186.293 618.896 184.255C618.466 182.624 618.37 180.923 618.615 179.254C618.86 177.586 619.441 175.984 620.322 174.545C623.354 169.655 629.306 167.49 633.457 163.504C633.543 165.534 634.954 167.269 636.513 168.575C638.073 169.881 639.861 170.94 641.182 172.487C642.45 174.118 643.375 175.989 643.901 177.987C644.714 180.301 645.079 182.75 644.975 185.2C644.916 186.425 644.608 187.625 644.069 188.727C643.531 189.829 642.774 190.81 641.844 191.611C640.298 192.831 638.138 193.528 637.391 195.349C637.097 196.259 637.012 197.223 637.143 198.171C637.497 203.834 637.827 209.598 636.492 215.113C635.156 220.628 631.884 225.957 626.756 228.402C630.97 228.7 635.273 228.991 639.362 227.929C643.451 226.867 647.361 224.192 648.77 220.215C649.466 218.254 649.532 216.072 650.52 214.239C653.02 209.602 659.926 209.39 663.318 205.357C664.676 203.743 665.332 201.663 665.819 199.612C668.683 187.543 666.671 174.727 662.311 163.113C660.808 159.11 658.937 155.08 655.713 152.266C652.97 149.872 649.467 148.553 646.003 147.427C640.947 145.783 635.739 144.436 630.425 144.262C628.116 144.127 625.802 144.396 623.587 145.059C621.4 145.848 619.365 147.006 617.57 148.481C609.245 154.949 603.578 165.286 604.33 175.791C604.785 182.148 607.482 188.164 610.947 193.515C612.159 195.387 615.023 199.378 617.684 198.201C620.098 197.134 621.127 192.537 620.811 190.279Z" fill="#2F2E41"/>
<path d="M290.25 262.525H316.721V236.093H290.25V262.525ZM423.132 236.093H396.662V262.525H423.132V236.093ZM343.456 262.525H369.926V236.093H343.456V262.525Z" fill="#6C63FF"/>
<path d="M136.46 157.326C148.761 157.326 158.733 149.56 158.733 139.979C158.733 130.399 148.761 122.632 136.46 122.632C124.159 122.632 114.187 130.399 114.187 139.979C114.187 149.56 124.159 157.326 136.46 157.326Z" fill="#2F2E41"/>
<path d="M140.246 259.407C140.246 259.407 160.292 260.742 163.856 258.073C167.419 255.404 182.565 261.631 183.901 265.19C185.238 268.748 162.519 269.193 158.955 269.193C155.392 269.193 138.464 274.53 138.464 274.53L140.246 259.407Z" fill="#A0616A"/>
<path d="M98.9684 466.604C98.9684 466.604 89.6262 490.127 94.5004 492.966C99.3746 495.805 150.553 493.777 150.553 493.777C150.553 493.777 159.083 488.505 149.334 484.854C149.334 484.854 141.211 484.449 135.931 481.204C130.65 477.96 124.558 471.876 124.558 471.876C124.558 471.876 124.151 462.953 120.902 464.981C119.93 465.621 119.102 466.456 118.473 467.434C117.843 468.412 117.426 469.511 117.246 470.659L98.9684 466.604Z" fill="#2F2E41"/>
<path opacity="0.1" d="M98.9684 466.604C98.9684 466.604 89.6262 490.127 94.5004 492.966C99.3746 495.805 150.553 493.777 150.553 493.777C150.553 493.777 159.083 488.505 149.334 484.854C149.334 484.854 141.211 484.449 135.931 481.204C130.65 477.96 124.558 471.876 124.558 471.876C124.558 471.876 124.151 462.953 120.902 464.981C119.93 465.621 119.102 466.456 118.473 467.434C117.843 468.412 117.426 469.511 117.246 470.659L98.9684 466.604Z" fill="black"/>
<path d="M254.382 322.061L189.199 257.238L254.316 192.416L234.463 172.658L149.559 257.238L234.529 341.819L254.382 322.061Z" fill="#005FCE"/>
<path d="M84.5638 473.8C84.5638 473.8 74.3183 499.598 79.6638 502.712C85.0093 505.825 141.137 503.601 141.137 503.601C141.137 503.601 150.492 497.819 139.801 493.816C139.801 493.816 130.892 493.371 125.101 489.812C119.31 486.254 112.628 479.582 112.628 479.582C112.628 479.582 112.182 469.797 108.619 472.02C107.552 472.722 106.645 473.638 105.955 474.711C105.264 475.783 104.806 476.988 104.61 478.248L84.5638 473.8Z" fill="#2F2E41"/>
<path d="M137.128 310.114L130.892 366.159C130.892 366.159 128.664 392.847 121.982 398.629C121.982 398.629 121.982 407.08 119.755 409.749L116.637 444.888C116.637 444.888 121.091 457.787 120.646 460.011C120.201 462.235 122.428 469.352 121.982 470.241C121.537 471.131 100.6 470.241 100.6 470.241L105.055 398.629L118.864 298.994L137.128 310.114Z" fill="#2F2E41"/>
<path opacity="0.1" d="M137.128 310.114L130.892 366.159C130.892 366.159 128.664 392.847 121.982 398.629C121.982 398.629 121.982 407.08 119.755 409.749L116.637 444.888C116.637 444.888 121.091 457.787 120.646 460.011C120.201 462.235 122.428 469.352 121.982 470.241C121.537 471.131 100.6 470.241 100.6 470.241L105.055 398.629L118.864 298.994L137.128 310.114Z" fill="black"/>
<path d="M125.991 308.335C125.991 308.335 121.091 354.149 118.864 363.935C117.464 370.379 116.57 376.923 116.191 383.506C116.191 383.506 115.746 397.739 111.737 401.743C110.564 402.902 109.642 404.29 109.029 405.821C108.416 407.351 108.125 408.991 108.173 410.639C108.173 410.639 104.164 455.563 106.391 460.901C108.619 466.238 110.846 470.686 108.619 474.245C106.391 477.803 81.891 477.803 81.891 475.134C81.891 472.465 81.891 470.241 80.5546 468.907C79.2183 467.573 80.5546 459.121 80.5546 459.121C80.5546 459.121 75.2091 419.535 80.1092 407.97C85.0092 396.405 87.2365 364.824 87.2365 364.824C87.2365 364.824 83.6729 328.796 79.2183 323.013C74.7637 317.231 80.1092 296.77 80.1092 296.77L125.991 308.335Z" fill="#2F2E41"/>
<path d="M113.45 166.062C113.968 167.24 115.207 167.896 116.336 168.517C122.876 172.115 128.351 177.331 133.744 182.487C132.399 177.933 132.685 173.053 134.555 168.687C135.199 167.198 136.043 165.597 135.583 164.042C135.244 162.898 134.269 162.073 133.324 161.343C131.123 159.644 128.823 158.077 126.435 156.65C124.767 155.654 121.338 153.002 119.424 153.29C119.324 155.872 119.271 158.181 118.139 160.595C117.87 161.167 113.648 166.513 113.45 166.062Z" fill="#A0616A"/>
<path d="M136.237 171.782C146.324 171.782 154.501 163.617 154.501 153.546C154.501 143.474 146.324 135.309 136.237 135.309C126.15 135.309 117.973 143.474 117.973 153.546C117.973 163.617 126.15 171.782 136.237 171.782Z" fill="#A0616A"/>
<path d="M137.128 196.691C137.128 196.691 140.246 181.123 131.337 175.785C122.428 170.448 112.182 164.221 112.182 164.221C112.182 164.221 109.064 163.776 107.728 170.448C107.728 170.448 82.3365 175.341 79.6638 199.36C76.991 223.379 81.4456 258.518 81.4456 258.518C81.4456 258.518 77.4365 289.209 72.5364 305.666C72.5364 305.666 68.5273 309.225 86.3456 303.887C104.164 298.55 135.346 319.01 135.346 319.01C135.346 319.01 138.464 315.897 138.464 313.673C138.464 311.449 142.028 298.55 142.028 298.55C142.028 298.55 145.146 243.839 146.483 237.612C147.819 231.385 141.137 197.58 137.128 196.691Z" fill="#005FCE"/>
<path d="M131.933 155.424C133.03 154.817 134.26 154.49 135.515 154.472C136.77 154.453 137.997 154.088 139.058 153.417C140.783 152.095 140.91 149.539 142.172 147.77C143.999 145.21 147.644 144.901 150.791 145.03C152.715 145.108 154.787 145.223 156.408 144.183C158.072 143.116 158.826 141.106 159.387 139.213C160.05 136.974 160.479 134.236 158.835 132.576C157.694 131.423 155.892 131.195 154.624 130.182C153.309 129.132 152.768 127.424 152.053 125.902C151.24 124.047 149.954 122.438 148.323 121.236C145.931 119.576 142.876 119.204 139.963 119.235C137.05 119.266 134.125 119.649 131.235 119.292C128.866 118.999 126.505 118.213 124.144 118.561C121.136 119.006 118.647 121.272 117.165 123.923C115.682 126.575 115.046 129.601 114.43 132.574L112.752 140.661C112.232 143.169 111.71 145.744 112.111 148.274C112.944 153.518 117.589 157.687 117.909 162.987C118.214 161.523 118.878 160.158 119.842 159.014C120.805 157.87 122.038 156.983 123.43 156.431C123.779 156.261 124.175 156.213 124.555 156.295C125.016 156.442 125.286 156.903 125.577 157.289C126.34 158.302 128.737 159.839 130.096 159.121C131.312 158.478 130.404 156.459 131.933 155.424Z" fill="#2F2E41"/>
<path d="M85.9001 238.502C85.9001 238.502 82.7819 258.073 95.7002 256.294C95.7002 256.294 102.382 255.404 103.273 256.294C104.164 257.183 137.128 251.401 141.582 246.508C141.582 246.508 146.928 244.729 149.601 247.398C152.273 250.067 179.001 252.735 170.983 244.729C162.965 236.723 150.492 234.944 150.492 234.944L133.564 235.833C133.564 235.833 124.655 238.502 119.31 235.833C113.964 233.164 98.8184 234.054 98.8184 234.054L85.9001 238.502Z" fill="#A0616A"/>
<path d="M104.164 176.675C104.164 176.675 84.1183 178.899 84.1183 207.811V244.729C84.1183 244.729 95.2548 239.836 97.4821 240.281C99.7094 240.726 108.619 234.499 108.619 234.499C108.619 234.499 118.864 210.48 117.973 203.808C117.082 197.136 117.528 177.565 104.164 176.675Z" fill="#005FCE"/>
<path d="M136.237 151.099C145.709 151.099 153.387 147.116 153.387 142.203C153.387 137.29 145.709 133.307 136.237 133.307C126.765 133.307 119.087 137.29 119.087 142.203C119.087 147.116 126.765 151.099 136.237 151.099Z" fill="#2F2E41"/>
<path d="M120.201 158.661C123.522 158.661 126.214 151.989 126.214 143.76C126.214 135.531 123.522 128.859 120.201 128.859C116.879 128.859 114.187 135.531 114.187 143.76C114.187 151.989 116.879 158.661 120.201 158.661Z" fill="#2F2E41"/>
</svg>
